<svg width="134" height="31" viewBox="0 0 134 31" fill="none" xmlns="http://www.w3.org/2000/svg">
<path d="M128.36 8.50766V5.46953C128.36 4.13039 127.117 3.04492 125.776 3.04492C124.439 3.04492 123.195 4.13039 123.195 5.46953V8.50766V13.0678H128.36V8.50766Z" fill="#BE1D3D"/>
<path d="M127.75 13.0643H130.784C132.122 13.0643 133.206 11.8195 133.206 10.4804C133.206 9.14123 132.122 7.89648 130.784 7.89648H127.75H123.195V13.0672H127.75V13.0643Z" fill="#E30045"/>
<path d="M0.878906 3.0332V22.0584C0.878906 24.7249 1.41803 26.6628 2.49335 27.8751C3.56866 29.0874 5.54546 29.692 8.42376 29.692H10.6421V24.6423H8.90691C7.74911 24.6423 6.98314 24.4151 6.60604 23.955C6.22895 23.4978 6.0404 22.7014 6.0404 21.5717V12.7257H11.3639V8.28356H5.96086V3.0332H0.878906Z" fill="white"/>
<path d="M24.9003 7.67947C23.8515 7.67947 22.8292 7.94788 21.8335 8.48767C20.8377 9.02745 20.1247 9.64688 19.6946 10.3459H19.6151V0.205078H14.3711V29.6926H19.6151V16.2423C19.6151 15.1391 19.9303 14.2424 20.5637 13.5552C21.1942 12.8679 22.1163 12.5257 23.3271 12.5257C24.591 12.5257 25.5396 12.9092 26.173 13.6761C26.8035 14.443 27.1216 15.4193 27.1216 16.6051V29.6926H32.3656V15.4341C32.3656 13.0655 31.6939 11.1807 30.3476 9.77961C29.0012 8.37853 27.1864 7.67947 24.9003 7.67947Z" fill="white"/>
<path d="M42.8378 8.6104C42.0424 9.09415 41.4443 9.74307 41.0407 10.5483H40.9612V8.28594H36V29.6944H41.244V17.9401C41.244 14.6837 42.4695 13.0526 44.9148 13.0526C45.4244 13.0526 45.9783 13.1588 46.5675 13.377L47.3747 8.28889C46.756 8.02048 46.1109 7.88479 45.4392 7.88479C44.4964 7.88184 43.6303 8.12371 42.8378 8.6104Z" fill="white"/>
<path d="M55.2284 8.2832H49.9844V29.6917H55.2284V8.2832Z" fill="white"/>
<path d="M55.2284 0.205078H49.9844V5.17228H55.2284V0.205078Z" fill="white"/>
<path d="M68.49 22.058H68.4104L63.084 8.2832H57.6367L66.1891 29.6917H70.6288L79.1812 8.2832H73.8165L68.49 22.058Z" fill="white"/>
<path d="M84.4866 16.6446C84.5956 15.4058 85.0582 14.3705 85.8772 13.5357C86.6991 12.701 87.7538 12.2821 89.0442 12.2821C90.4436 12.2821 91.5454 12.6656 92.3526 13.4325C93.1598 14.1994 93.6282 15.2701 93.7638 16.6446H84.4866ZM89.0442 7.67773C86.1924 7.67773 83.8326 8.70716 81.9648 10.769C80.097 12.8278 79.1602 15.568 79.1602 18.9896C79.1602 22.4112 80.0999 25.1485 81.9825 27.2103C83.865 29.2691 86.2985 30.3015 89.2858 30.3015C92.9978 30.3015 95.9409 28.7146 98.121 25.5349L94.4502 22.305C93.749 23.3285 93.0037 24.1426 92.2112 24.7473C91.4187 25.3549 90.417 25.6558 89.2062 25.6558C87.7803 25.6558 86.6579 25.2192 85.8389 24.3432C85.0169 23.4701 84.5691 22.2106 84.4866 20.5677H98.8487V18.9926C98.8487 15.5739 97.9265 12.8337 96.0853 10.7719C94.241 8.70716 91.896 7.67773 89.0442 7.67773Z" fill="white"/>
<path d="M112.242 7.67773C111.11 7.67773 110.035 7.93435 109.013 8.44464C107.99 8.95493 107.183 9.5891 106.591 10.3413H106.508V8.28241H101.465V29.6909H106.712V16.6033C106.712 15.3645 107.074 14.3764 107.799 13.636C108.527 12.8956 109.534 12.524 110.824 12.524C112.197 12.524 113.164 12.8956 113.729 13.636C114.295 14.3764 114.578 15.4884 114.578 16.9691V29.6938H119.822V15.6742C119.822 13.17 119.15 11.2114 117.804 9.79852C116.463 8.3827 114.607 7.67773 112.242 7.67773Z" fill="white"/>
<path d="M128.36 13.0645H127.75H123.195V22.0579C123.195 24.7244 123.734 26.6623 124.81 27.8746C125.885 29.0869 127.862 29.6916 130.74 29.6916H132.959V24.6418H131.223C130.066 24.6418 129.3 24.4147 128.922 23.9545C128.545 23.4973 128.357 22.7009 128.357 21.5712V13.0645H128.36Z" fill="white"/>
</svg>
